<?xml version="1.0" encoding="UTF-8" standalone="no"?>
<!-- Generator: Adobe Illustrator 25.0.0, SVG Export Plug-In . SVG Version: 6.00 Build 0)  -->

<svg
   version="1.1"
   id="Layer_1"
   x="0px"
   y="0px"
   viewBox="0 0 278.89999 208.8"
   xml:space="preserve"
   sodipodi:docname="IBM5151.svg"
   width="278.89999"
   height="208.8"
   inkscape:version="1.2.2 (b0a8486541, 2022-12-01)"
   xmlns:inkscape="http://www.inkscape.org/namespaces/inkscape"
   xmlns:sodipodi="http://sodipodi.sourceforge.net/DTD/sodipodi-0.dtd"
   xmlns="http://www.w3.org/2000/svg"
   xmlns:svg="http://www.w3.org/2000/svg"><defs
   id="defs187" /><sodipodi:namedview
   id="namedview185"
   pagecolor="#505050"
   bordercolor="#ffffff"
   borderopacity="1"
   inkscape:showpageshadow="0"
   inkscape:pageopacity="0"
   inkscape:pagecheckerboard="1"
   inkscape:deskcolor="#505050"
   showgrid="false"
   inkscape:zoom="2.2250293"
   inkscape:cx="167.63824"
   inkscape:cy="139.32401"
   inkscape:window-width="1536"
   inkscape:window-height="923"
   inkscape:window-x="0"
   inkscape:window-y="0"
   inkscape:window-maximized="1"
   inkscape:current-layer="Layer_1" />
<style
   type="text/css"
   id="style2">
	.st0{fill:#DAD5CE;}
	.st1{fill:#A4A29E;}
	.st2{fill:#6F6F6E;}
	.st3{fill:#A5A39F;}
	.st4{fill:#7E7D77;}
	.st5{fill:#BBB7AD;}
	.st6{fill:#1C1A1B;}
	.st7{fill:#090808;}
</style>
<path
   class="st0"
   d="m 278.9,208.8 c -93,0 -185.9,0 -278.9,0 C 0,139.2 0,69.6 0,0 c 93,0 185.9,0 278.9,0 0,69.6 0,139.2 0,208.8 z m -136.2,-12 c 37.2,0 74.3,0 111.5,0 0.6,0 1.2,0 1.7,-0.2 1.1,-0.4 2.2,-1 2.9,-1.9 0.7,-0.8 1.2,-1.7 1.6,-2.7 0.2,-0.6 0.7,-3 0.7,-3.9 0,-53.9 0,-107.7 0,-161.6 0,-2.4 0.3,-4.7 -0.2,-7.1 -0.1,-0.6 0,-1.2 -0.3,-1.7 -0.8,-1.4 -1.3,-2.9 -2.8,-3.9 -1.2,-0.8 -2.4,-1.3 -3.8,-1.3 -74.3,0 -148.5,0 -222.8,0 -0.2,0 -0.5,0 -0.7,0 -0.1,0 -0.3,0 -0.4,0.1 -2.3,0.6 -3.7,2.3 -4.8,4.1 -0.2,1.2 -0.7,2.3 -0.7,3.5 0,56.1 0,112.2 0,168.3 0,0.8 0.1,1.6 0.3,2.4 0.1,0.6 0.3,1.2 0.6,1.7 0.5,0.9 1.1,1.7 1.9,2.5 1.2,1 2.4,1.7 4,1.7 37,0 74.1,0 111.3,0 z"
   id="path4" />
<path
   class="st1"
   d="m 142.7,196.8 c -37.2,0 -74.3,0 -111.5,0 -1.6,0 -2.8,-0.7 -4,-1.7 -0.8,-0.7 -1.4,-1.6 -1.9,-2.5 -0.3,-0.5 -0.4,-1.1 -0.6,-1.7 -0.2,-0.8 -0.3,-1.6 -0.3,-2.4 0,-56.1 0,-112.2 0,-168.3 0,-1.3 0.6,-2.3 0.7,-3.5 1.2,-1.9 2.6,-3.5 4.8,-4.1 0.1,0 0.3,-0.1 0.4,-0.1 0.2,0 0.5,0 0.7,0 74.3,0 148.5,0 222.8,0 1.4,0 2.6,0.5 3.8,1.3 1.5,1 2,2.5 2.8,3.9 0.3,0.5 0.2,1.1 0.3,1.7 0.5,2.4 0.2,4.7 0.2,7.1 0,53.9 0,107.7 0,161.6 0,0.9 -0.5,3.3 -0.7,3.9 -0.4,1 -1,1.9 -1.6,2.7 -0.8,0.9 -1.8,1.4 -2.9,1.9 -0.5,0.2 -1.1,0.2 -1.7,0.2 -37,0 -74.2,0 -111.3,0 z M 30.2,195.6 c 74.6,0 149.3,0 224,0 0.1,0 0.2,0 0.4,0 0.7,0.1 1.3,-0.2 1.8,-0.5 2.3,-1.3 3.6,-3.3 3.6,-6 0,-56.3 0,-112.6 0,-168.9 0,-0.2 0,-0.3 0,-0.5 0,-0.7 -0.2,-1.4 -0.5,-2.1 -0.4,-1 -1,-1.9 -1.8,-2.6 -1,-0.9 -2,-1.3 -3.3,-1.3 -74.4,0 -148.8,0 -223.2,0 -1.3,0 -2.3,0.6 -3.2,1.3 -0.8,0.7 -1.6,1.5 -1.8,2.7 0,0.2 -0.3,0.5 -0.4,0.6 -0.1,0.7 -0.2,1.3 -0.3,2 0,0.7 0,1.4 0,2 0,55.3 0,110.5 0,165.8 0,0.6 -0.2,1.3 0.2,1.9 0,1 0.5,1.8 0.9,2.6 0.6,1.2 1.5,2 2.7,2.4 0.3,0.2 0.6,0.4 0.9,0.6 z"
   id="path6" />
<path
   class="st2"
   d="m 30.2,195.6 c -0.3,-0.2 -0.5,-0.4 -0.8,-0.5 -1.2,-0.5 -2.1,-1.3 -2.7,-2.4 -0.4,-0.8 -1,-1.6 -0.9,-2.6 -0.4,-0.6 -0.2,-1.3 -0.2,-1.9 0,-55.3 0,-110.5 0,-165.8 0,-0.7 0,-1.4 0,-2 0,-0.6 0.2,-1.3 0.3,-2 0.1,-0.2 0.3,-0.4 0.4,-0.6 0.2,-1.2 1,-2 1.8,-2.7 0.9,-0.7 1.9,-1.3 3.2,-1.3 74.4,0 148.8,0 223.2,0 1.3,0 2.3,0.5 3.3,1.3 0.8,0.7 1.4,1.6 1.8,2.6 0.3,0.6 0.5,1.3 0.5,2.1 0,0.2 0,0.3 0,0.5 0,56.3 0,112.6 0,168.9 0,2.7 -1.3,4.6 -3.6,6 -0.5,0.3 -1.2,0.6 -1.8,0.5 -0.1,0 -0.2,0 -0.4,0 -74.8,-0.1 -149.5,-0.1 -224.1,-0.1 z M 226.1,15.8 c -64.8,0 -129.5,0 -194.1,0 -0.9,0 -1.7,0.2 -2.5,0.7 -0.8,0.6 -1.4,1.3 -1.7,2.3 -0.2,0.9 -0.4,1.7 -0.4,2.6 0,55.5 0,111 0,166.4 0,0.2 0,0.4 0,0.6 0.1,0.6 0.1,1.2 0.3,1.8 0.9,2.1 2.2,3.2 4.5,3.2 64.2,0 128.5,0 192.7,0 0.4,0 0.8,0 1.2,0 0,-59.2 0,-118.3 0,-177.6 z m 1.9,0 c 0,59.2 0,118.3 0,177.3 0.1,0.1 0.2,0.2 0.3,0.3 0,0 0.1,0 0.1,0 8.5,0 17,0 25.4,0 0.7,0 1.2,-0.4 1.8,-0.5 1.3,-1.1 2.3,-2.4 2.3,-4.2 0,-56.1 0,-112.2 0,-168.2 0,-0.5 -0.1,-1 -0.2,-1.5 -0.3,-0.8 -0.7,-1.6 -1.2,-2.1 -0.8,-0.7 -1.8,-1.1 -3,-1.1 -8.1,0 -16.2,0 -24.4,0 -0.3,0 -0.7,0 -1.1,0 z"
   id="path8" />
<path
   class="st3"
   d="m 226.1,15.8 c 0,59.2 0,118.4 0,177.6 -0.4,0 -0.8,0 -1.2,0 -64.2,0 -128.5,0 -192.7,0 -2.3,0 -3.6,-1 -4.5,-3.2 -0.2,-0.5 -0.2,-1.2 -0.3,-1.8 0,-0.2 0,-0.4 0,-0.6 0,-55.5 0,-111 0,-166.4 0,-0.9 0.2,-1.7 0.4,-2.6 0.3,-1 0.9,-1.7 1.7,-2.3 0.7,-0.5 1.5,-0.7 2.5,-0.7 64.6,0 129.3,0 194.1,0 z m -8.7,10.1 c -0.3,-0.6 -0.8,-1 -1.4,-1.2 -0.7,-0.1 -1.3,-0.3 -2.1,-0.3 -58.2,0 -116.4,0 -174.6,0 -0.2,0 -0.5,0 -0.7,0 -0.2,0 -0.4,0.1 -0.5,0.1 -0.8,0.1 -1.3,0.6 -1.9,0.9 0,0.1 0,0.2 0,0.4 -0.7,0.3 -1,1.1 -1.2,1.7 -0.2,0.9 -0.3,1.9 -0.3,2.9 0,42.9 0,85.9 0,128.8 0,3.6 0,7.3 0,10.9 0.1,3.6 -0.2,7.3 0.2,10.9 0.1,0.7 0.4,1.3 0.8,1.8 0.1,0.1 0.3,0.1 0.4,0.1 0,0.2 0,0.4 0,0.6 0.1,0 0.2,0 0.3,0.1 0.9,0.8 1.9,1 3.1,1 58.1,0 116.3,0 174.4,0 1,0 1.9,-0.3 2.7,-0.7 0.4,-0.2 0.8,-0.4 0.7,-1 0.1,0 0.2,0 0.4,0 0.3,-0.9 0.8,-1.6 0.8,-2.7 0,-50.5 0,-100.9 0,-151.4 0,-0.6 0,-1.3 -0.3,-1.8 -0.1,-0.2 -0.1,-0.9 -0.8,-1.1 z"
   id="path10" />
<path
   class="st3"
   d="m 228,15.8 c 0.4,0 0.8,0 1.1,0 8.1,0 16.2,0 24.4,0 1.2,0 2.2,0.4 3,1.1 0.6,0.5 1,1.3 1.2,2.1 0.2,0.5 0.2,1 0.2,1.5 0,56.1 0,112.2 0,168.2 0,1.9 -1,3.1 -2.3,4.2 -0.6,0.1 -1.2,0.5 -1.8,0.5 -8.5,0 -17,0 -25.4,0 0,0 -0.1,0 -0.1,0 -0.1,-0.1 -0.2,-0.2 -0.3,-0.3 0,-59 0,-118.1 0,-177.3 z m 23.3,144.9 c 0.2,-0.8 -0.1,-1.5 -0.3,-2.3 -0.4,-1.2 -1.2,-2.2 -2.3,-3 -0.6,-0.4 -1.4,-0.8 -2.2,-0.9 -1.8,-0.2 -3.8,1.1 -4.8,2.7 -0.8,1.4 -1,2.8 -0.9,4.3 0,0.7 0.1,1.4 0.5,1.9 0.7,0.9 1.1,1.9 2.1,2.5 1.2,0.8 2.4,0.9 3.7,0.7 0.8,-0.1 1.6,-0.6 2.1,-1.2 0.6,-0.6 1.2,-1.3 1.5,-2.1 0.4,-0.7 0.7,-1.6 0.6,-2.6 z m -6.7,-17.2 c 0.2,0 0.5,-0.1 0.8,0 0.5,0.3 0.8,0.2 1.3,0 0.4,-0.2 1,-0.1 1.4,-0.3 0.7,-0.4 1.2,-1 1.8,-1.5 0.9,-0.9 1.3,-2.1 1.4,-3.3 0.1,-0.7 0.1,-1.4 0,-2 -0.1,-0.5 -0.2,-1 -0.5,-1.5 -0.5,-1.1 -1.2,-2 -2.2,-2.7 -1,-0.6 -2,-0.8 -3.1,-0.7 -0.9,0.1 -1.8,0.4 -2.5,1 -0.6,0.5 -1.2,1.1 -1.5,1.9 -0.3,0.7 -0.6,1.5 -0.7,2.2 -0.2,2.1 0.2,4.1 1.9,5.7 0.5,0.4 1.1,0.9 1.9,1.2 z M 234.7,59 c 6.1,0 12.2,0 18.2,0 0.2,-3.8 0.1,-19.8 -0.1,-20.8 -6,0 -12.1,0 -18.1,0 0,6.9 0,13.9 0,20.8 z"
   id="path12" />
<path
   class="st4"
   d="m 217.4,183.1 c 0,0.5 -0.3,0.8 -0.7,1 -0.8,0.4 -1.7,0.7 -2.7,0.7 -58.1,0 -116.3,0 -174.4,0 -1.1,0 -2.2,-0.2 -3.1,-1 -0.1,-0.1 -0.2,-0.1 -0.3,-0.1 0,-0.2 0,-0.4 0,-0.6 0.1,-0.1 0.2,-0.1 0.3,-0.2 0.3,-0.4 0.7,-0.8 1,-1.2 0.4,-0.4 0.7,-0.9 1.1,-1.3 0.8,-0.9 1.7,-1.7 2.4,-2.7 0.4,-0.6 0.9,-1.1 1.4,-1.6 0.1,-0.1 0.1,-0.3 0.1,-0.4 0.3,0.2 0.5,0.5 0.8,0.7 0.5,0.5 1.2,0.8 1.9,1 0.5,0.1 1,0 1.6,0 0.5,0 1,0.2 1.5,0.2 1.7,0.1 3.4,-0.1 5.2,0.2 1.7,0.3 3.4,0 5.2,0.2 1.8,0.3 3.6,0 5.4,0.2 1.9,0.3 3.8,0 5.8,0.2 2.1,0.3 4.2,0 6.3,0.2 2.1,0.3 4.3,0 6.5,0.2 2.5,0.3 5,0 7.5,0.2 3,0.3 6.1,-0.2 9.1,0.3 4.8,0.1 9.5,-0.1 14.3,0.2 3.3,0.2 6.6,0 9.8,0 3.3,0 6.6,0 10,0 3.2,-0.1 6.5,0.1 9.7,-0.2 2.2,-0.2 4.4,0 6.6,-0.1 2.2,0 4.3,0 6.5,-0.2 3.1,-0.3 6.2,0.2 9.3,-0.3 1.1,-0.2 2.3,0 3.5,0 1.1,0 2.3,-0.1 3.4,-0.2 2.3,-0.2 4.6,0.1 7,-0.3 2,-0.3 4,0.1 6,-0.2 1.9,-0.3 3.8,0 5.7,-0.2 1.8,-0.3 3.6,0.1 5.4,-0.2 0.8,-0.2 1.7,0 2.5,0 0.8,0 1.7,0 2.6,-0.2 0.8,-0.2 1.7,0 2.5,0 1.5,-0.1 3,-0.2 4.5,-0.2 0.1,0 0.3,-0.1 0.4,-0.2 1,-0.1 1.6,-0.9 2.4,-1.3 0.2,0.2 0.3,0.5 0.5,0.7 0.6,0.6 1.1,1.2 1.6,1.8 0.7,1 1.6,1.8 2.4,2.7 0.1,0.1 0.3,0.3 0.4,0.4 0,0.9 0.6,1.4 1.1,1.8 z"
   id="path14" />
<path
   class="st4"
   d="m 36.2,25.9 c 0,-0.1 0,-0.2 0,-0.4 0.6,-0.3 1.1,-0.9 1.9,-0.9 0.2,0 0.4,-0.1 0.5,-0.1 0.2,0 0.5,0 0.7,0 58.2,0 116.4,0 174.6,0 0.7,0 1.4,0.2 2.1,0.3 0.6,0.1 1.1,0.6 1.4,1.2 -0.7,0.7 -1.4,1.4 -2.1,2.2 -0.8,1 -1.6,2 -2.5,2.9 -0.7,0.8 -1.3,1.5 -2,2.3 -0.8,-0.5 -1.5,-1 -2.3,-1.4 -0.5,0 -1,0 -1.5,0 -0.5,0 -1,-0.2 -1.5,-0.2 -1.7,-0.1 -3.4,0.1 -5.2,-0.2 -1.7,-0.3 -3.4,0 -5.2,-0.2 -1.8,-0.3 -3.6,0 -5.4,-0.2 -1.8,-0.3 -3.7,0 -5.5,-0.2 -2.1,-0.3 -4.3,0.1 -6.5,-0.2 -2.1,-0.3 -4.3,0 -6.5,-0.2 -2.4,-0.3 -4.8,0 -7.2,-0.2 -3,-0.3 -6.1,0 -9.1,-0.2 -2.8,-0.2 -5.6,-0.1 -8.4,0 -2.8,0 -5.5,-0.4 -8.3,-0.3 -2.7,0.1 -5.4,0 -8.2,0 -2.3,0 -4.6,0 -7,0 -2.3,0 -4.6,0 -7,0 -2.3,0 -4.6,0 -6.9,0.2 -2.3,0.2 -4.7,0.1 -7.1,0 -2.3,-0.1 -4.7,0.2 -7,0.3 -1.2,0 -2.4,0 -3.6,0 -1.2,0 -2.3,0.1 -3.5,0.2 -2.6,0.2 -5.2,-0.1 -7.8,0.3 -2,0.3 -4.1,0 -6.1,0.2 -2.1,0.3 -4.3,-0.1 -6.5,0.3 -1.7,0.2 -3.4,-0.1 -5.2,0.2 -1.1,0.2 -2.3,0 -3.5,0 -1.1,0 -2.3,0.1 -3.4,0.2 -1.3,0.1 -2.6,-0.1 -3.9,0.2 -0.9,0.2 -1.9,0.1 -2.9,0 -1,-0.1 -1.9,0.3 -2.9,0.3 -1.1,-0.1 -2.1,0.3 -3,1 -0.1,-0.2 -0.2,-0.3 -0.3,-0.5 -2.1,-2.1 -4.1,-4.1 -6.2,-6.2 0.4,-0.5 0.2,-0.6 0,-0.7 z"
   id="path16" />
<path
   class="st5"
   d="m 36.2,25.9 c 0.2,0.1 0.3,0.2 0.5,0.3 2.1,2.1 4.1,4.1 6.2,6.2 0.1,0.1 0.2,0.3 0.3,0.5 -0.1,0.2 -0.3,0.4 -0.4,0.5 -1.2,1 -1.5,2.4 -1.7,3.8 -0.1,1.1 0,2.2 -0.2,3.3 -0.2,1.2 0,2.5 -0.2,3.7 -0.2,1.2 0,2.5 -0.2,3.7 -0.2,1.3 0,2.7 -0.2,4.1 -0.3,1.4 0,2.9 -0.2,4.3 -0.3,1.5 0,3 -0.2,4.6 -0.3,1.5 0,3 -0.2,4.6 -0.3,1.7 0,3.5 -0.2,5.3 -0.3,2 0,4 -0.2,6 -0.3,2.4 0,4.8 -0.2,7.2 -0.3,3.8 0.1,7.7 -0.3,11.5 -0.2,2.1 0,4.3 0,6.5 0,2.2 0,4.4 0,6.6 0,2.1 -0.1,4.2 0.2,6.4 0.2,1.9 0,3.8 0.1,5.6 0,1.8 0,3.7 0.2,5.5 0.3,2.4 -0.1,4.8 0.2,7.2 0.2,1.2 0.1,2.5 0,3.7 0,1.2 0.3,2.4 0.3,3.6 0,1.2 -0.1,2.5 0.2,3.7 0.2,0.8 0.1,1.8 0,2.6 -0.1,0.9 0.2,1.7 0.3,2.5 0,1.3 0,2.6 0.2,4 0.2,1.5 0,3 0.3,4.5 0.2,1.3 0,2.6 0.2,4 0.2,1.3 0,2.7 0.3,4.1 0.2,1.1 -0.1,2.2 0.2,3.3 0.2,0.6 0,1.4 0,2 0,0.7 0.2,1.4 0.3,2.1 0.4,0.6 0.8,1.3 1.2,2 0,0.1 0,0.3 -0.1,0.4 -0.5,0.5 -0.9,1 -1.4,1.6 -0.7,1 -1.6,1.8 -2.4,2.7 -0.4,0.4 -0.7,0.9 -1.1,1.3 -0.3,0.4 -0.7,0.8 -1,1.2 -0.1,0.1 -0.2,0.1 -0.3,0.2 -0.1,0 -0.4,0 -0.4,-0.1 -0.4,-0.6 -0.7,-1.1 -0.8,-1.8 -0.4,-3.6 -0.2,-7.3 -0.2,-10.9 -0.1,-3.6 0,-7.3 0,-10.9 0,-42.9 0,-85.9 0,-128.8 0,-1 0,-2 0.3,-2.9 -0.4,-0.4 -0.1,-1.2 0.6,-1.5 z"
   id="path18" />
<path
   class="st5"
   d="m 211,33.4 c 0.7,-0.8 1.3,-1.5 2,-2.3 0.8,-1 1.7,-1.9 2.5,-2.9 0.6,-0.8 1.4,-1.5 2.1,-2.2 0.6,0.2 0.7,0.9 0.9,1.4 0.3,0.5 0.3,1.2 0.3,1.8 0,50.5 0,100.9 0,151.4 0,1 -0.5,1.8 -0.8,2.7 -0.2,0 -0.3,0 -0.4,0 -0.6,-0.4 -1.2,-0.9 -1.5,-1.6 -0.1,-0.2 -0.3,-0.3 -0.4,-0.4 -0.8,-0.9 -1.7,-1.7 -2.4,-2.7 -0.5,-0.7 -1.1,-1.2 -1.6,-1.8 -0.2,-0.2 -0.4,-0.4 -0.5,-0.7 0.2,-0.3 0.3,-0.6 0.5,-0.9 0.5,-0.7 0.8,-1.4 0.9,-2.1 0.1,-0.8 0.1,-1.7 0.2,-2.5 0.2,-1.3 0,-2.6 0.2,-3.9 0.2,-1.3 0,-2.6 0.2,-3.9 0.2,-1.3 0,-2.7 0.2,-4.1 0.2,-1.3 0,-2.7 0.2,-4.1 0.2,-1.4 0,-2.8 0.2,-4.2 0.3,-1.5 0,-3.1 0.2,-4.7 0.3,-1.7 0,-3.4 0.2,-5.2 0.3,-1.8 0,-3.7 0.3,-5.5 0.3,-2.1 -0.2,-4.3 0.2,-6.5 0.2,-1 0,-2.1 0,-3.1 0,-1.1 0.1,-2.2 0,-3.2 -0.1,-1 0.3,-2 0.3,-3 0,-3.4 0,-6.9 0,-10.3 0,-3.4 0,-6.8 0,-10.2 -0.1,-3.4 0.2,-6.8 -0.2,-10.2 -0.2,-1.4 0,-2.8 0,-4.2 0,-1.4 0,-2.8 -0.2,-4.2 -0.3,-2.3 0.1,-4.6 -0.3,-6.9 -0.3,-1.7 0.1,-3.5 -0.2,-5.3 -0.3,-1.7 0,-3.4 -0.2,-5.2 -0.2,-1.5 0,-3 -0.2,-4.5 -0.3,-1.4 0,-2.9 -0.2,-4.3 -0.2,-1.3 0,-2.7 -0.2,-4.1 -0.2,-1.3 0,-2.7 -0.2,-4.1 -0.2,-1.2 0.1,-2.5 -0.2,-3.7 -0.2,-0.8 0,-1.7 0,-2.5 0,-0.9 -0.4,-1.7 -0.2,-2.5 0.1,-0.5 -0.2,-1 -0.4,-1.5 -0.6,-0.9 -1,-1.5 -1.3,-2.1 z"
   id="path20" />
<path
   class="st6"
   d="m 251.3,160.7 c 0.2,1 -0.2,1.9 -0.5,2.7 -0.3,0.8 -0.9,1.5 -1.5,2.1 -0.6,0.6 -1.3,1.1 -2.1,1.2 -1.3,0.2 -2.5,0.1 -3.7,-0.7 -1,-0.6 -1.5,-1.6 -2.1,-2.5 -0.4,-0.5 -0.5,-1.3 -0.5,-1.9 -0.1,-1.5 0.1,-2.9 0.9,-4.3 1,-1.7 3.1,-3 4.8,-2.7 0.8,0.1 1.5,0.4 2.2,0.9 1.1,0.7 1.8,1.8 2.3,3 0.1,0.7 0.3,1.4 0.2,2.2 z m -7.2,-2.1 c -0.3,0.5 -0.6,1 -0.5,1.7 -0.3,0 -0.6,0 -1,0 0,0.3 0,0.5 0.1,0.7 0.4,0 0.6,0 0.9,0 0.1,0.6 0.2,1.1 0.2,1.7 -0.1,0.2 -0.2,0.4 -0.3,0.8 0.4,-0.2 0.6,-0.3 0.8,-0.3 0.5,0.3 1.2,0 1.4,0.7 0,0.2 0,0.5 0,0.7 0.2,0 0.3,0 0.5,0 0,-0.2 0,-0.5 0,-0.7 0.1,-0.2 0.3,-0.4 0.3,-0.4 0.5,0.1 0.7,-0.4 1.1,-0.5 0.2,0.3 0.3,0.6 0.8,0.4 -0.1,-0.2 -0.2,-0.4 -0.3,-0.6 0.1,-0.6 0.2,-1.1 0.2,-1.7 0.3,0 0.6,0 0.9,0 0,-0.3 0,-0.5 0,-0.7 -0.3,0 -0.6,0 -0.9,0 0.1,-0.6 -0.2,-1.2 -0.5,-1.7 0.2,-0.1 0.3,-0.3 0.5,-0.4 -0.1,-0.1 -0.1,-0.2 -0.2,-0.3 -0.2,0.1 -0.4,0.2 -0.6,0.3 -0.5,-0.1 -1,-0.2 -1.4,-0.2 0,-0.4 0,-0.8 0,-1.2 -0.2,0 -0.3,0 -0.5,0 0,0.4 0,0.8 0,1.2 -0.5,0.1 -1,0.2 -1.4,0.2 -0.2,-0.1 -0.4,-0.2 -0.7,-0.3 0,0.2 0,0.3 0,0.4 0.3,0 0.4,0.1 0.6,0.2 z"
   id="path22" />
<path
   class="st6"
   d="m 244.6,143.5 c -0.8,-0.4 -1.4,-0.8 -1.9,-1.3 -1.7,-1.6 -2.1,-3.5 -1.9,-5.7 0.1,-0.8 0.4,-1.5 0.7,-2.2 0.3,-0.7 0.9,-1.4 1.5,-1.9 0.7,-0.6 1.5,-0.9 2.5,-1 1.1,-0.1 2.1,0.1 3.1,0.7 1.1,0.7 1.7,1.6 2.2,2.7 0.2,0.5 0.4,1 0.5,1.5 0.1,0.7 0.1,1.4 0,2 -0.2,1.2 -0.5,2.4 -1.4,3.3 -0.5,0.6 -1.1,1.2 -1.8,1.5 -0.5,0.2 -1,0.1 -1.4,0.3 -0.5,0.2 -0.8,0.2 -1.3,0 -0.3,0 -0.7,0.1 -0.8,0.1 z m -1.9,-4.6 c 0,0 0,0 0,0 0.1,0.2 0.1,0.3 0.2,0.5 0.5,0.8 1,1.6 1.9,1.9 0.6,0.2 1.2,0.5 1.9,0.2 1,-0.4 1.8,-0.8 2.2,-1.9 0.1,-0.3 0.3,-0.5 0.4,-0.8 0,-0.6 0,-1.1 0,-1.7 0.1,-0.7 -0.1,-1.2 -0.5,-1.7 -0.4,-0.5 -0.9,-1 -1.4,-1.4 -0.2,-0.2 -0.6,-0.2 -1,-0.2 -0.6,0 -1.1,0 -1.5,0 -2.2,1 -2.5,2.9 -2.2,5.1 z"
   id="path24" />
<path
   class="st4"
   d="m 234.7,59 c 0,-6.9 0,-13.9 0,-20.8 6,0 12.1,0 18.1,0 0.2,1 0.2,17 0.1,20.8 -6,0 -12,0 -18.2,0 z m 17.7,-0.5 c 0,-6.7 0,-13.3 0,-19.9 -4.3,-0.2 -16.2,-0.1 -17.2,0.1 0,6.6 0,13.2 0,19.8 5.8,0 11.5,0 17.2,0 z"
   id="path26" />
<path
   class="st7"
   d="m 211,33.4 c 0.3,0.6 0.7,1.2 1,1.9 0.2,0.5 0.5,1 0.4,1.5 -0.1,0.9 0.3,1.7 0.2,2.5 0,0.8 -0.2,1.7 0,2.5 0.3,1.3 0,2.5 0.2,3.7 0.3,1.4 0,2.8 0.2,4.1 0.2,1.4 0,2.8 0.2,4.1 0.3,1.5 0,2.9 0.2,4.3 0.3,1.5 0,3 0.2,4.5 0.3,1.7 0,3.5 0.2,5.2 0.3,1.8 0,3.6 0.2,5.3 0.3,2.3 0,4.6 0.3,6.9 0.2,1.4 0.2,2.8 0.2,4.2 0,1.4 -0.1,2.8 0,4.2 0.4,3.4 0.1,6.8 0.2,10.2 0.1,3.4 0,6.8 0,10.2 0,3.4 0,6.9 0,10.3 0,1 -0.3,2 -0.3,3 0.1,1.1 0,2.2 0,3.2 0,1 0.2,2.1 0,3.1 -0.4,2.2 0,4.4 -0.2,6.5 -0.2,1.9 0,3.7 -0.3,5.5 -0.3,1.7 0,3.5 -0.2,5.2 -0.3,1.6 0,3.2 -0.2,4.7 -0.2,1.4 0,2.8 -0.2,4.2 -0.2,1.4 0,2.8 -0.2,4.1 -0.2,1.4 0,2.8 -0.2,4.1 -0.2,1.3 0,2.6 -0.2,3.9 -0.2,1.3 0,2.6 -0.2,3.9 -0.1,0.9 -0.1,1.7 -0.2,2.5 -0.1,0.8 -0.4,1.5 -0.9,2.1 -0.2,0.3 -0.3,0.6 -0.5,0.9 -0.8,0.4 -1.4,1.2 -2.4,1.3 -0.1,0 -0.3,0.1 -0.4,0.2 -1.5,0.1 -3,0.2 -4.5,0.2 -0.8,0 -1.7,-0.1 -2.5,0 -0.9,0.2 -1.7,0.2 -2.6,0.2 -0.8,0 -1.7,-0.1 -2.5,0 -1.8,0.4 -3.6,0 -5.4,0.2 -1.9,0.3 -3.8,0 -5.7,0.2 -2,0.3 -4,0 -6,0.2 -2.3,0.3 -4.7,0 -7,0.3 -1.1,0.1 -2.3,0.2 -3.4,0.2 -1.2,0 -2.3,-0.1 -3.5,0 -3.1,0.4 -6.2,0 -9.3,0.3 -2.2,0.2 -4.3,0.1 -6.5,0.2 -2.2,0 -4.4,-0.2 -6.6,0.1 -3.3,0.3 -6.5,0.1 -9.7,0.2 -3.3,0.1 -6.6,0 -10,0 -3.3,0 -6.6,0.2 -9.8,0 -4.8,-0.3 -9.5,-0.1 -14.3,-0.2 -3,-0.5 -6.1,0 -9.1,-0.3 -2.5,-0.3 -5,0.1 -7.5,-0.2 -2.2,-0.3 -4.4,0.1 -6.5,-0.2 -2.1,-0.3 -4.2,0 -6.3,-0.2 -1.9,-0.3 -3.9,0 -5.8,-0.2 -1.8,-0.3 -3.6,0 -5.4,-0.2 -1.7,-0.3 -3.5,0 -5.2,-0.2 -1.7,-0.3 -3.5,-0.1 -5.2,-0.2 -0.5,0 -1,-0.2 -1.5,-0.2 -0.5,0 -1.1,0.1 -1.6,0 -0.7,-0.2 -1.3,-0.5 -1.9,-1 -0.3,-0.2 -0.5,-0.5 -0.8,-0.7 -0.4,-0.7 -0.8,-1.4 -1.2,-2 -0.1,-0.7 -0.2,-1.4 -0.3,-2.1 0,-0.7 0.1,-1.4 0,-2 -0.3,-1.1 0,-2.2 -0.2,-3.3 -0.3,-1.4 0,-2.8 -0.3,-4.1 -0.2,-1.3 0,-2.7 -0.2,-4 -0.2,-1.5 0,-3 -0.3,-4.5 -0.2,-1.3 -0.1,-2.7 -0.2,-4 0,-0.9 -0.3,-1.7 -0.3,-2.5 0.1,-0.9 0.2,-1.8 0,-2.6 -0.3,-1.3 -0.2,-2.5 -0.2,-3.7 0,-1.2 -0.3,-2.4 -0.3,-3.6 0,-1.2 0.2,-2.5 0,-3.7 -0.4,-2.4 0,-4.8 -0.2,-7.2 -0.2,-1.9 -0.2,-3.7 -0.2,-5.5 0,-1.9 0.2,-3.8 -0.1,-5.6 -0.3,-2.1 -0.1,-4.3 -0.2,-6.4 -0.1,-2.2 0,-4.4 0,-6.6 0,-2.2 -0.2,-4.3 0,-6.5 0.4,-3.8 -0.1,-7.7 0.3,-11.5 0.2,-2.4 -0.1,-4.8 0.2,-7.2 0.3,-2 -0.1,-4 0.2,-6 0.3,-1.8 0,-3.6 0.2,-5.3 0.2,-1.5 0,-3.1 0.2,-4.6 0.3,-1.5 0,-3.1 0.2,-4.6 0.3,-1.5 0,-2.9 0.2,-4.3 0.3,-1.4 0,-2.8 0.2,-4.1 0.2,-1.3 0,-2.5 0.2,-3.7 0.2,-1.3 0,-2.5 0.2,-3.7 0.2,-1.1 0.1,-2.2 0.2,-3.3 0.2,-1.4 0.5,-2.8 1.7,-3.8 0.2,-0.1 0.3,-0.4 0.4,-0.5 0.9,-0.7 1.8,-1 3,-1 1,0.1 1.9,-0.3 2.9,-0.3 1,0.1 2,0.2 2.9,0 1.3,-0.3 2.6,-0.1 3.9,-0.2 1.1,-0.1 2.3,-0.2 3.4,-0.2 1.2,0 2.4,0.2 3.5,0 1.7,-0.3 3.5,0 5.2,-0.2 2.2,-0.3 4.4,0 6.5,-0.3 2.1,-0.3 4.1,0 6.1,-0.2 2.6,-0.3 5.2,0 7.8,-0.3 1.2,-0.1 2.3,-0.2 3.5,-0.2 1.2,0 2.4,0 3.6,0 2.3,0 4.6,-0.3 7,-0.3 2.4,0.1 4.7,0.2 7.1,0 2.3,-0.2 4.6,-0.1 6.9,-0.2 2.3,0 4.6,0 7,0 2.3,0 4.6,0 7,0 2.7,0 5.4,0.1 8.2,0 2.8,-0.1 5.5,0.3 8.3,0.3 2.8,0 5.6,-0.2 8.4,0 3.1,0.3 6.1,-0.1 9.1,0.2 2.4,0.3 4.8,-0.1 7.2,0.2 2.2,0.3 4.4,-0.1 6.5,0.2 2.2,0.3 4.4,0 6.5,0.2 1.9,0.3 3.7,0 5.5,0.2 1.8,0.3 3.6,0 5.4,0.2 1.7,0.3 3.5,0 5.2,0.2 1.7,0.3 3.5,0.1 5.2,0.2 0.5,0 1,0.2 1.5,0.2 0.5,0 1,0 1.5,0 1.4,0.3 2.2,0.8 3,1.3 z"
   id="path28" />
<path
   class="st5"
   d="m 247.7,163 c -0.4,0.1 -0.6,0.6 -1.1,0.5 -0.1,0 -0.2,0.3 -0.3,0.4 -0.2,0 -0.3,0 -0.5,0 -0.2,-0.7 -1,-0.5 -1.4,-0.7 0,-0.1 0,-0.3 0,-0.5 -0.2,0 -0.3,0 -0.5,0 -0.1,-0.6 -0.2,-1.1 -0.2,-1.7 0,-0.2 0,-0.5 0,-0.7 -0.1,-0.6 0.2,-1.2 0.5,-1.7 0.4,0 0.2,-0.3 0.2,-0.5 0.5,-0.1 1,-0.2 1.4,-0.2 0.2,0 0.3,0 0.5,0 0.5,0.1 1,0.2 1.4,0.2 0,0.2 -0.1,0.5 0.2,0.5 0.3,0.5 0.6,1 0.5,1.7 0,0.2 0,0.5 0,0.7 -0.1,0.6 -0.2,1.1 -0.2,1.7 -0.2,0.1 -0.5,-0.1 -0.5,0.3 z m 0.2,-1.5 c 0,-0.3 0,-0.5 0,-0.7 0.1,-0.9 -0.4,-1.6 -1,-2.1 -0.5,-0.4 -1.1,-0.5 -1.7,-0.1 -0.7,0.5 -1.2,1 -1.2,2 0,0.3 0,0.5 0,0.9 0.3,0.4 0.6,0.8 1,1.1 0.6,0.5 1.3,0.5 1.9,0 0.4,-0.4 0.7,-0.8 1,-1.1 z"
   id="path30" />
<path
   class="st1"
   d="m 243.6,160.3 c 0,0.2 0,0.5 0,0.7 -0.3,0 -0.6,0 -0.9,0 0,-0.2 0,-0.4 -0.1,-0.7 0.4,0 0.7,0 1,0 z"
   id="path32" />
<path
   class="st1"
   d="m 248.4,161 c 0,-0.2 0,-0.5 0,-0.7 0.3,0 0.6,0 0.9,0 0,0.3 0,0.5 0,0.7 -0.3,0 -0.6,0 -0.9,0 z"
   id="path34" />
<path
   class="st4"
   d="m 246.2,157.9 c -0.2,0 -0.3,0 -0.5,0 0,-0.4 0,-0.8 0,-1.2 0.2,0 0.3,0 0.5,0 0,0.4 0,0.8 0,1.2 z"
   id="path36" />
<path
   class="st1"
   d="m 243.8,162.7 c 0.1,0 0.3,0 0.5,0 0,0.2 0,0.3 0,0.5 -0.2,0.1 -0.4,0.2 -0.8,0.3 0.2,-0.4 0.3,-0.6 0.3,-0.8 z"
   id="path38" />
<path
   class="st1"
   d="m 247.7,163 c 0,-0.4 0.3,-0.2 0.5,-0.2 0.1,0.2 0.2,0.4 0.3,0.6 -0.5,0.2 -0.7,-0.2 -0.8,-0.4 z"
   id="path40" />
<path
   class="st1"
   d="m 244.3,158.2 c 0,0.2 0.1,0.5 -0.2,0.5 -0.1,-0.1 -0.3,-0.2 -0.5,-0.4 0,0 0,-0.2 0,-0.4 0.3,0.1 0.5,0.2 0.7,0.3 z"
   id="path42" />
<path
   class="st1"
   d="m 247.9,158.6 c -0.4,0 -0.2,-0.3 -0.2,-0.5 0.2,-0.1 0.4,-0.2 0.6,-0.3 0.1,0.1 0.1,0.2 0.2,0.3 -0.2,0.3 -0.4,0.4 -0.6,0.5 z"
   id="path44" />
<path
   class="st3"
   d="m 245.8,163.9 c 0.2,0 0.3,0 0.5,0 0,0.2 0,0.5 0,0.7 -0.2,0 -0.3,0 -0.5,0 0,-0.2 0,-0.5 0,-0.7 z"
   id="path46" />
<path
   class="st0"
   d="m 242.7,138.9 c -0.3,-2.2 0.1,-4.1 2.3,-5.2 0.4,0 1,0 1.5,0 0.3,0 0.7,0.1 1,0.2 0.5,0.4 1,0.9 1.4,1.4 0.4,0.5 0.6,1 0.5,1.7 -0.1,0.6 0,1.1 0,1.7 -0.1,0.3 -0.4,0.5 -0.4,0.8 -0.3,1.1 -1.2,1.5 -2.2,1.9 -0.8,0.3 -1.3,0 -1.9,-0.2 -0.9,-0.3 -1.5,-1.1 -1.9,-1.9 -0.2,-0.1 -0.2,-0.2 -0.3,-0.4 0,0 0,0 0,0 z m 3.1,1.9 c 0,-1.2 0,-2.3 0,-3.4 0,-1.1 0.1,-2.2 -0.1,-3.4 -0.8,0.5 -1.6,0.7 -2.1,1.6 -0.5,0.9 -0.6,1.9 -0.4,2.8 0.1,0.7 0.6,1.4 1.2,1.9 0.4,0.4 0.7,0.7 1.4,0.5 z"
   id="path48" />
<path
   class="st0"
   d="m 252.4,58.5 c -5.7,0 -11.4,0 -17.2,0 0,-6.6 0,-13.2 0,-19.8 1,-0.2 12.9,-0.3 17.2,-0.1 0,6.7 0,13.2 0,19.9 z m -9.8,-5 c -0.1,0.1 -0.2,0.2 -0.2,0.2 0.1,0.2 -0.2,0.6 0.2,0.7 0.9,0 1.7,0 2.6,0 0,-0.3 0.1,-0.5 0.1,-0.8 0.2,0 0.3,0.1 0.4,0.1 -0.2,0.3 -0.5,0.5 0.1,0.7 0.1,-0.2 0.2,-0.4 0.4,-0.6 0.1,-0.2 0.2,-0.4 0.4,-0.6 -0.9,-0.2 -1.7,0.1 -2.5,-0.3 -0.1,0.4 -0.2,0.6 -0.4,1 -0.1,-0.1 -0.2,-0.1 -0.3,-0.1 0.3,-0.3 0.5,-0.5 -0.1,-0.6 -0.1,0.2 -0.3,0.3 -0.4,0.5 0,-0.2 -0.1,-0.3 -0.1,-0.6 -0.1,0.3 -0.1,0.4 -0.2,0.4 z m -5.7,-0.9 c 0,0 0,0.1 0,0.1 0.3,0.1 0.6,0.2 1,0.3 0,-0.2 0,-0.3 -0.1,-0.4 -0.3,0 -0.6,0 -0.9,0.3 -0.1,0.1 -0.2,0.2 -0.2,0.2 -0.2,0.4 -0.2,0.4 -0.2,1.4 0.4,0 0.7,0 1.2,0 0,-0.2 -0.1,-0.3 -0.1,-0.4 -0.2,0.1 -0.3,0.2 -0.5,0.3 -0.1,-0.2 -0.2,-0.4 -0.4,-0.7 0,-0.1 0,-0.3 0,-0.6 0,-0.1 0.1,-0.2 0.2,-0.5 z m -0.3,2.6 c 0,0.1 0,0.3 -0.1,0.4 -0.2,0.6 -0.2,0.8 0.1,1.3 0.1,0.1 0.1,0.2 0.2,0.2 0.1,-0.1 0.2,-0.2 0.3,-0.2 0.2,0 0.5,0.1 0.5,-0.2 0.1,-0.1 0.3,-0.1 0.4,-0.2 0.1,0.2 0.1,0.5 0.2,0.8 0.2,-0.1 0.4,-0.2 0.5,-0.3 0.1,0.1 0.3,0.2 0.5,0.3 0.2,-0.4 0.3,-0.7 0.5,-1.1 0.1,0 0.2,0 0.3,0 -0.1,0.5 -0.3,1.1 -0.4,1.6 0.2,0 0.3,0 0.5,0 0,-0.2 0,-0.4 0,-0.4 0.4,-0.4 0.7,-0.7 1.1,-1 -0.2,-0.3 -0.4,-0.5 -0.5,-0.7 -0.6,0.1 -1,0.2 -1.5,0.4 0,0.2 -0.1,0.4 -0.1,0.6 -0.2,0 -0.2,0 -0.5,0 0.4,-0.5 0.3,-0.9 0.2,-1.4 -0.2,0.3 -0.4,0.5 -0.5,0.6 -0.3,-0.2 -0.5,-0.4 -0.7,-0.6 -0.3,-0.4 -0.7,-0.4 -1,-0.1 z m 0.5,-5 c -0.1,-0.1 -0.2,-0.2 -0.4,-0.3 -0.2,0.8 -0.4,1.5 -0.6,2.2 0.2,0 0.3,0 0.4,0 0.1,-0.3 0.2,-0.6 0.3,-0.9 0.1,0 0.2,0 0.2,0 0.1,0 0.3,0 0.4,0 0,0.4 0.1,0.7 0.1,1.1 0.3,-0.2 0.5,-0.4 0.6,-0.5 -0.1,-0.1 -0.2,-0.2 -0.3,-0.3 0.1,0 0.2,0 0.3,-0.1 0.1,-0.1 0.2,-0.1 0.5,-0.3 -0.1,0.4 -0.2,0.6 -0.3,0.8 0.5,-0.1 0.7,-0.3 0.7,-0.6 0,-0.1 0.3,-0.1 0.5,-0.1 -0.1,0.3 -0.2,0.5 -0.3,0.7 0.2,0 0.4,0 0.6,0 0.2,-0.2 -0.1,-0.6 1,-1.2 -0.4,0.3 -0.9,0.6 -0.7,1.1 0.1,0.2 0.3,0.3 0.5,0.4 0.1,-0.2 0.2,-0.4 0.4,-0.7 0.2,0.3 0.3,0.5 0.5,0.7 0.1,-0.2 0.2,-0.2 0.3,-0.3 0,-0.1 0.1,-0.2 0.1,-0.3 1.3,0.6 1.8,0.5 2.7,-0.1 0.1,-0.5 0.2,-1 0.3,-1.6 -0.1,0 -0.2,0 -0.3,0 -0.2,0.5 -0.3,1 -0.5,1.6 -0.1,-0.4 -0.1,-0.6 -0.1,-0.9 -0.2,0 -0.4,0 -0.6,0 -0.2,0.3 -0.5,0.6 -0.8,1 0,-0.3 0,-0.6 0,-1 -0.5,0.1 -0.9,0.2 -1.4,0.2 0,0 -0.2,-0.1 -1.1,0.3 0,-0.1 0,-0.3 0,-0.5 -0.5,0 -1.1,-0.1 -1.5,0 -0.4,0.2 -0.8,-0.3 -1,0.1 -0.2,-0.2 -0.4,-0.4 -0.6,-0.6 0.3,0.1 0.2,0.1 0.1,0.1 z m 2.4,4.3 c 0.1,0 0.2,0 0.2,0 0.1,-0.2 0.2,-0.3 0.4,-0.5 0.1,0.2 0.1,0.3 0.2,0.5 0.1,0 0.3,0 0.4,0 0,0.2 0,0.4 0,0.7 0.3,0 0.5,0.1 0.7,0.1 -0.1,0.5 -0.2,1 -0.3,1.6 0.4,0 0.7,0 1,0 0.1,0 0.2,0 0.2,0 0.1,0 0.3,0 0.4,0 0,-0.5 0,-0.8 0,-1.4 -0.4,0.4 -0.7,0.6 -1,0.9 -0.3,-0.5 0.1,-0.9 0.2,-1.3 -0.3,-0.1 -0.5,-0.1 -0.8,-0.2 0.3,-0.5 0.3,-0.5 0.7,-0.6 0.1,0 0.2,-0.1 0.3,-0.1 0,-0.3 0,-0.5 0,-0.8 -0.2,-0.1 -0.4,-0.2 -0.6,-0.3 -0.2,0.1 -0.3,0.1 -0.4,0.2 -0.2,0 -0.3,0 -0.5,0 -0.4,0 -0.9,0 -1.3,0 -0.5,0 -0.9,-0.1 -1.3,0.1 0,0.2 0,0.3 0,0.4 -0.4,0.2 -0.2,0.5 -0.1,0.7 0.6,0.2 0.8,-0.3 1,-0.8 0.1,0.3 0.1,0.6 0.2,0.8 0.2,0 0.3,0 0.4,0 z m 0,-7 c 1.6,0 3.2,0 4.8,0 0,-0.2 0,-0.4 0,-0.6 -1.6,0 -3.2,0 -4.8,0 0,0.2 0,0.4 0,0.6 z m 0,-5 c 1.6,0 3.1,0 4.6,0 0,0 0.1,-0.1 0.2,-0.2 -0.1,-0.2 -0.3,-0.3 -0.4,-0.5 -1.5,0 -3,0 -4.5,0 0.1,0.2 0.1,0.4 0.1,0.7 z m 0,-1 c 1.4,0 2.8,0 4.2,0 -0.2,-0.2 -0.4,-0.4 -0.5,-0.6 -1.2,0 -2.4,0 -3.6,0 -0.1,0.2 -0.1,0.4 -0.1,0.6 z m 6,2.8 c 2,0.2 4.5,0.1 5.3,-0.1 0,-0.1 -0.1,-0.2 -0.1,-0.3 -0.8,0 -1.5,0.1 -2.2,0.1 -0.1,0 -0.1,0.1 -0.2,0.2 -0.6,-0.3 -0.9,-0.3 -2.7,-0.2 -0.1,0.1 -0.1,0.2 -0.1,0.3 z m -9.6,-2.8 c 1,0 2,0 3.1,0 0,-0.2 0,-0.4 0,-0.6 -1,0 -2,0 -3.1,0 0,0.2 0,0.4 0,0.6 z m 3.1,5.3 c -1,0 -2,0 -3.1,0 0,0.2 0,0.4 0,0.6 1,0 2,0 3.1,0 0,-0.1 0,-0.3 0,-0.6 z m -3.2,-4.4 c 1.2,0 2.2,0 3.2,0 0,-0.2 0,-0.4 0,-0.6 -0.9,0 -1.8,0 -2.8,0 -0.1,0.2 -0.2,0.3 -0.4,0.6 z m 9,0.1 c 1,0 1.9,0 3,0 -0.2,-0.3 -0.3,-0.5 -0.4,-0.7 -0.9,0 -1.7,0 -2.5,0 0,0 -0.1,0.1 -0.1,0.1 0,0.1 0,0.3 0,0.6 z m 7.1,0 c -0.2,-0.3 -0.3,-0.5 -0.5,-0.7 -0.8,0 -1.5,0 -2.3,0 -0.1,0.2 -0.2,0.4 -0.4,0.7 1.1,0 2.1,0 3.2,0 z m -2.8,-1 c 0.9,0 1.7,0 2.6,0 0,-0.2 0,-0.4 0,-0.6 -0.9,0 -1.7,0 -2.6,0 0,0.2 0,0.4 0,0.6 z m -9.6,7 c 1.2,0 2.4,0 3.5,0 0.2,0 0.4,-0.2 0.8,-0.4 -1.6,0 -2.9,0 -4.2,0 -0.1,0.1 -0.1,0.1 -0.1,0.4 z m 7.6,-7.7 c -0.8,0 -1.6,0 -2.3,0 0,0.2 0,0.4 0,0.7 0.8,0 1.7,0 2.5,0 0,0 0.1,-0.1 0.2,-0.2 -0.1,-0.1 -0.2,-0.3 -0.4,-0.5 z m -6.8,3.6 c 1.2,0 2.4,0 3.5,0 -0.1,-0.1 -0.1,-0.2 -0.2,-0.3 0.2,0 0.4,0 0.5,0 0,0 -0.1,-0.1 -0.1,-0.1 -1.2,0 -2.5,0 -3.8,0 0.1,0.1 0.1,0.2 0.1,0.4 z m 3.5,0.5 c -1.2,0 -2.3,0 -3.5,0 0,0.1 0,0.3 0,0.4 1.2,0 2.5,0 3.7,0 0,0 0.1,-0.1 0.1,-0.1 -0.1,-0.1 -0.2,-0.2 -0.3,-0.3 z m 3.1,1.9 c -0.7,0 -1.4,0 -2.1,0 0,0.2 0,0.4 0,0.6 0.7,0 1.4,0 2.1,0 0,-0.1 0,-0.3 0,-0.6 z m 2.7,0.7 c 0.7,0 1.4,0 2.1,0 0,-0.2 0,-0.4 0,-0.6 -0.7,0 -1.4,0 -2.1,0 0,0.2 0,0.4 0,0.6 z m -13.7,0.9 c 1,0 2,0 3.1,0 0,-0.1 0,-0.3 0,-0.4 -1,0 -2,0 -3.1,0 0,0.2 0,0.3 0,0.4 z m 9.6,-5 c 0.8,0 1.6,0 2.4,0 0,-0.1 0,-0.3 0,-0.4 -0.8,0 -1.6,0 -2.4,0 0,0.1 0,0.3 0,0.4 z m 0,3.1 c 0.5,0 1,0 1.4,0 0,-0.3 0,-0.5 0,-0.6 -0.5,0 -0.9,0 -1.4,0 0,0.2 0,0.4 0,0.6 z m 3.2,-3.1 c 0.7,0 1.4,0 2.1,0 0,-0.1 0,-0.3 0,-0.4 -0.7,0 -1.4,0 -2.1,0 0,0.1 0,0.3 0,0.4 z m 3,4.6 c -0.7,0 -1.4,0 -2.1,0 0,0.1 0,0.2 0,0.4 0.7,0 1.4,0 2.1,0 0,-0.1 0,-0.2 0,-0.4 z m -4.8,0 c -0.7,0 -1.4,0 -2.1,0 0,0.1 0,0.3 0,0.4 0.7,0 1.4,0 2.1,0 0,-0.1 0,-0.2 0,-0.4 z m -6.7,-1.4 c 0.5,0 1,0 1.4,-0.1 0,-0.3 0,-0.5 0,-0.6 -0.5,0 -1,0 -1.4,0 0,0.2 0,0.4 0,0.7 z m 4.1,-0.1 c 0,-0.3 0,-0.5 0,-0.6 -0.5,0 -0.9,0 -1.4,0 0,0.2 0,0.4 0,0.6 0.5,0 0.9,0 1.4,0 z m 2.9,-0.6 c 0.3,0.4 0.4,0.5 0.5,0.6 0.4,0 0.8,0 1.1,0 0,-0.2 0,-0.4 0,-0.6 -0.4,0 -0.9,0 -1.6,0 z m 0,-1 c 0,0.2 0.1,0.3 0.1,0.4 0.6,0 1.2,0 1.8,0 0.1,-0.2 0.3,-0.2 0.3,-0.4 -0.8,0 -1.5,0 -2.2,0 z m 3.6,1.6 c 0,-0.3 0,-0.5 0,-0.6 -0.4,0 -0.8,0 -1.1,0 0,0.2 0,0.4 0,0.6 0.3,0 0.7,0 1.1,0 z m -13.9,0 c 0.4,0 0.8,0 1.2,0 0,-0.2 0,-0.4 0,-0.6 -0.4,0 -0.8,0 -1.2,0 0,0.2 0,0.4 0,0.6 z m 6.3,9.4 c 0.4,0.5 -0.1,1.1 0.2,1.4 0.6,-0.7 0.8,-1.1 0.5,-1.4 -0.1,0.1 -0.2,0.2 -0.2,0.2 -0.1,-0.1 -0.3,-0.1 -0.5,-0.2 z M 241.7,43 c -0.5,0 -0.9,0 -1.4,0 0,0.1 0,0.2 0,0.4 0.5,0 0.9,0 1.4,0 0,-0.1 0,-0.3 0,-0.4 z m 5.2,1.9 c -0.5,0 -0.9,0 -1.4,0 0,0.1 0,0.3 0,0.4 0.5,0 0.9,0 1.4,0 0,-0.1 0,-0.2 0,-0.4 z m -2.6,-1.8 c -0.5,-0.1 -1,-0.2 -1.5,0 0,0.2 0.1,0.3 0.1,0.4 1,-0.1 1,-0.1 1.4,-0.4 z m 3.3,3.7 c 0.3,0.6 0.5,0.8 1.1,0.6 0,-0.2 0,-0.4 0,-0.6 -0.4,0 -0.7,0 -1.1,0 z m -10.7,-3.4 c 0.4,0 0.8,0 1.2,0 0,-0.2 -0.1,-0.3 -0.1,-0.5 -0.4,0.1 -0.8,-0.1 -1.1,0.5 z m 0,1 c 0.4,0 0.8,0 1.2,0 0,-0.1 0,-0.3 0,-0.4 -0.4,0 -0.8,0 -1.2,0 0,0.1 0,0.2 0,0.4 z m 0,0.9 c 0.4,0 0.8,0 1.2,0 0,-0.2 -0.1,-0.3 -0.1,-0.5 -0.4,0.2 -0.8,-0.1 -1.1,0.5 z m 12.7,0 c 0.4,0 0.8,0 1.2,0 0,-0.1 0,-0.3 0,-0.4 -0.4,0 -0.8,0 -1.2,0 0,0.2 0,0.3 0,0.4 z m -1.2,2.7 c -0.1,0 -0.1,0 -0.2,0 0,0.1 0.1,0.3 0.1,0.4 0,0 0.1,0 0.1,0 0,-0.1 0,-0.2 0,-0.4 z m -5.4,9.4 c 0,0 0,0 0,0 -0.1,0.1 -0.1,0.2 -0.1,0.2 0,0 0.1,0 0.1,0 0,-0.1 0,-0.2 0,-0.2 z"
   id="path50" />
<path
   class="st6"
   d="m 247.9,161.5 c -0.3,0.3 -0.6,0.8 -0.9,1.1 -0.6,0.5 -1.3,0.6 -1.9,0 -0.4,-0.3 -0.7,-0.7 -1,-1.1 0,-0.3 0,-0.6 0,-0.9 -0.1,-0.9 0.5,-1.5 1.2,-2 0.6,-0.4 1.2,-0.3 1.7,0.1 0.6,0.5 1.1,1.2 1,2.1 -0.1,0.2 -0.1,0.4 -0.1,0.7 z"
   id="path52" />
<path
   class="st6"
   d="m 245.8,140.8 c -0.6,0.1 -1,-0.2 -1.4,-0.5 -0.6,-0.5 -1.1,-1.1 -1.2,-1.9 -0.1,-0.9 -0.1,-1.9 0.4,-2.8 0.5,-0.9 1.3,-1.1 2.1,-1.6 0.2,1.2 0.1,2.3 0.1,3.4 0,1.1 0,2.2 0,3.4 z"
   id="path54" />
<path
   class="st2"
   d="m 241.2,50.6 c 0.2,0.1 0.3,0.2 0.4,0.2 0.5,-0.1 0.9,-0.2 1.4,-0.2 0,0.4 0,0.7 0,1 0.3,-0.4 0.6,-0.7 0.8,-1 0.2,0 0.4,0 0.6,0 0,0.2 0.1,0.4 0.1,0.9 0.2,-0.6 0.4,-1.1 0.5,-1.6 0.1,0 0.2,0 0.3,0 -0.1,0.5 -0.2,1 -0.3,1.6 -0.9,0.6 -1.4,0.6 -2.7,0.1 0,0.1 -0.1,0.2 -0.1,0.3 0,0.1 -0.1,0.2 -0.3,0.3 -0.2,-0.3 -0.3,-0.4 -0.5,-0.7 -0.2,0.3 -0.3,0.5 -0.4,0.7 -0.2,-0.2 -0.5,-0.3 -0.5,-0.4 -0.2,-0.6 0.3,-0.9 0.7,-1.2 z"
   id="path56" />
<path
   class="st2"
   d="m 237.6,55.2 c 0.2,0.2 0.4,0.4 0.7,0.6 0.1,-0.1 0.3,-0.4 0.5,-0.6 0.1,0.5 0.2,0.9 -0.2,1.4 0.2,0 0.3,0 0.5,0 0,-0.2 0.1,-0.4 0.1,-0.6 0.5,-0.1 0.9,-0.2 1.5,-0.4 0.1,0.2 0.3,0.4 0.5,0.7 -0.4,0.3 -0.7,0.6 -1.1,1 0,0 0,0.2 0,0.4 -0.1,0 -0.3,0 -0.5,0 0.2,-0.6 0.3,-1.1 0.4,-1.6 -0.1,0 -0.2,0 -0.3,0 -0.2,0.4 -0.3,0.7 -0.5,1.1 -0.2,-0.1 -0.4,-0.2 -0.5,-0.3 -0.1,0.1 -0.3,0.2 -0.5,0.3 -0.1,-0.3 -0.1,-0.6 -0.2,-0.8 -0.2,0.1 -0.3,0.2 -0.4,0.2 0,-0.4 0,-0.8 0,-1.2 0,0 0,-0.1 0,-0.2 z m 2.7,1.4 c 0.1,0 0.1,0 0.2,0 0,-0.1 -0.1,-0.3 -0.1,-0.4 0,0 -0.1,0 -0.1,0 0,0.1 0,0.3 0,0.4 z"
   id="path58" />
<path
   class="st2"
   d="m 242.9,53.8 c 0.1,-0.2 0.3,-0.3 0.4,-0.5 0.5,0.1 0.3,0.4 0.1,0.6 0.1,0 0.2,0.1 0.3,0.1 0.1,-0.3 0.2,-0.6 0.4,-1 0.8,0.4 1.6,0.1 2.5,0.3 -0.2,0.2 -0.3,0.4 -0.4,0.6 -0.1,0.2 -0.2,0.4 -0.4,0.6 -0.5,-0.2 -0.2,-0.4 -0.1,-0.7 -0.1,0 -0.2,-0.1 -0.4,-0.1 0,0.2 -0.1,0.5 -0.1,0.8 -0.9,0 -1.7,0 -2.6,0 0,-0.2 0,-0.5 0,-0.7 0.1,0 0.2,0 0.3,0 z m 1.5,0.2 c 0.1,0 0.1,0 0.2,0 0,-0.1 -0.1,-0.3 -0.1,-0.4 0,0 -0.1,0 -0.1,0 0,0.1 0,0.2 0,0.4 z"
   id="path60" />
<path
   class="st2"
   d="m 239.5,47.5 c 0,-0.2 0,-0.4 0,-0.6 1.6,0 3.2,0 4.8,0 0,0.2 0,0.4 0,0.6 -1.6,0 -3.2,0 -4.8,0 z"
   id="path62" />
<path
   class="st2"
   d="m 239.5,42.5 c 0,-0.3 0,-0.5 0,-0.7 1.5,0 2.9,0 4.5,0 0.1,0.1 0.2,0.3 0.4,0.5 -0.1,0.1 -0.1,0.2 -0.2,0.2 -1.6,0 -3.1,0 -4.7,0 z"
   id="path64" />
<path
   class="st2"
   d="m 241.2,53.3 c 0.1,0 0.2,-0.1 0.4,-0.2 0.1,0.1 0.4,0.2 0.6,0.3 0,0.2 0,0.5 0,0.8 -0.1,0 -0.2,0.1 -0.3,0.1 -0.4,0.1 -0.4,0.1 -0.7,0.6 0.3,0.1 0.5,0.1 0.8,0.2 -0.1,0.5 -0.5,0.9 -0.2,1.3 0.3,-0.3 0.6,-0.5 1,-0.9 0,0.5 0,0.9 0,1.4 -0.1,0 -0.3,0 -0.4,0 0,-0.2 -0.1,-0.3 -0.1,-0.5 -0.1,0 -0.1,0 -0.2,0 0,0.1 0,0.3 0,0.4 -0.3,0 -0.6,0 -1,0 0.1,-0.6 0.2,-1.1 0.3,-1.6 -0.2,0 -0.4,-0.1 -0.7,-0.1 0,-0.2 0,-0.4 0,-0.7 0.1,-0.1 0.2,-0.2 0.2,-0.2 0.1,-0.1 0.2,-0.2 0.2,-0.3 0.1,-0.2 0.1,-0.4 0.1,-0.6 z"
   id="path66" />
<path
   class="st2"
   d="m 240.5,51.1 c -0.5,0.1 -0.1,0.5 -0.3,0.7 -0.2,0 -0.3,0 -0.6,0 0.1,-0.2 0.1,-0.4 0.3,-0.7 -0.3,0.1 -0.5,0.1 -0.5,0.1 0,0.4 -0.3,0.5 -0.7,0.6 0.1,-0.3 0.2,-0.5 0.3,-0.8 -0.3,0.2 -0.4,0.2 -0.5,0.3 -0.1,0 -0.2,0.1 -0.3,0.1 0.1,0.1 0.1,0.1 0.3,0.3 -0.2,0.1 -0.4,0.3 -0.6,0.5 0,-0.4 -0.1,-0.7 -0.1,-1.1 -0.1,0 -0.3,0 -0.4,0 0.2,-0.3 0.3,-0.6 0.2,-1 0.2,0.2 0.4,0.4 0.6,0.6 0.2,-0.3 0.6,0.1 1,-0.1 0.4,-0.2 0.9,0 1.5,0 -0.2,0.2 -0.2,0.4 -0.2,0.5 z"
   id="path68" />
<path
   class="st2"
   d="m 239.5,41.5 c 0,-0.2 0,-0.4 0,-0.6 1.2,0 2.4,0 3.6,0 0.2,0.2 0.4,0.4 0.5,0.6 -1.2,0 -2.6,0 -4.1,0 z"
   id="path70" />
<path
   class="st2"
   d="m 238.1,53.8 c 0,-0.1 0,-0.3 0,-0.4 0.4,-0.1 0.9,0 1.3,-0.1 0.4,0 0.9,0 1.3,0 0,0.3 0,0.6 0,1 0,0.1 0,0.2 0,0.2 -0.1,0 -0.2,0 -0.4,0 -0.1,-0.2 -0.1,-0.3 -0.2,-0.5 -0.1,0.2 -0.3,0.3 -0.4,0.5 0,-0.2 0,-0.5 -0.1,-0.7 -0.1,0 -0.1,0 -0.2,0 0,0.2 0,0.5 0,0.7 -0.1,0 -0.2,0 -0.4,0 0,-0.2 -0.1,-0.5 -0.2,-0.8 -0.2,0.5 -0.4,1 -1,0.8 0.1,-0.3 -0.2,-0.6 0.3,-0.7 0,0.1 0,0.3 0,0.5 0.2,-0.3 0.6,-0.4 0.3,-0.8 -0.1,0.1 -0.2,0.2 -0.3,0.3 z"
   id="path72" />
<path
   class="st2"
   d="m 245.5,44.3 c 0,-0.1 0,-0.2 0,-0.3 1.8,-0.2 2.1,-0.1 2.7,0.2 0.1,-0.1 0.1,-0.2 0.2,-0.2 0.7,0 1.5,-0.1 2.2,-0.1 0,0.1 0.1,0.2 0.1,0.3 -0.6,0.2 -3.2,0.3 -5.2,0.1 z"
   id="path74" />
<path
   class="st2"
   d="m 235.9,41.5 c 0,-0.2 0,-0.4 0,-0.6 1,0 2,0 3.1,0 0,0.2 0,0.4 0,0.6 -1,0 -2,0 -3.1,0 z"
   id="path76" />
<path
   class="st2"
   d="m 239,46.8 c 0,0.2 0,0.4 0,0.6 -1,0 -2,0 -3.1,0 0,-0.2 0,-0.4 0,-0.6 1.1,0 2.1,0 3.1,0 z"
   id="path78" />
<path
   class="st2"
   d="m 235.8,42.4 c 0.2,-0.3 0.3,-0.5 0.4,-0.6 0.9,0 1.8,0 2.8,0 0,0.2 0,0.4 0,0.6 -1,0 -2,0 -3.2,0 z"
   id="path80" />
<path
   class="st2"
   d="m 244.8,42.5 c 0,-0.3 0,-0.4 0,-0.6 0,0 0.1,-0.1 0.1,-0.1 0.8,0 1.6,0 2.5,0 0.1,0.2 0.2,0.3 0.4,0.7 -1.1,0 -2,0 -3,0 z"
   id="path82" />
<path
   class="st2"
   d="m 251.9,42.5 c -1.1,0 -2.1,0 -3.2,0 0.2,-0.3 0.3,-0.5 0.4,-0.7 0.8,0 1.5,0 2.3,0 0.2,0.2 0.3,0.3 0.5,0.7 z"
   id="path84" />
<path
   class="st2"
   d="m 249.1,41.5 c 0,-0.2 0,-0.4 0,-0.6 0.9,0 1.7,0 2.6,0 0,0.2 0,0.4 0,0.6 -0.8,0 -1.7,0 -2.6,0 z"
   id="path86" />
<path
   class="st2"
   d="m 239.5,48.5 c 0,-0.2 0,-0.3 0.1,-0.4 1.3,0 2.7,0 4.2,0 -0.4,0.2 -0.6,0.4 -0.8,0.4 -1.1,0 -2.3,0 -3.5,0 z"
   id="path88" />
<path
   class="st2"
   d="m 247.1,40.8 c 0.1,0.2 0.2,0.3 0.3,0.4 -0.1,0.1 -0.1,0.2 -0.2,0.2 -0.8,0 -1.6,0 -2.5,0 0,-0.3 0,-0.5 0,-0.7 0.9,0.1 1.6,0.1 2.4,0.1 z"
   id="path90" />
<path
   class="st2"
   d="m 240.3,44.4 c 0,-0.1 0,-0.2 0,-0.4 1.3,0 2.5,0 3.8,0 0,0 0.1,0.1 0.1,0.1 -0.2,0 -0.4,0 -0.5,0 0.1,0.1 0.1,0.2 0.2,0.3 -1.3,0 -2.4,0 -3.6,0 z"
   id="path92" />
<path
   class="st2"
   d="m 243.8,44.9 c 0.1,0.1 0.2,0.2 0.3,0.3 0,0 -0.1,0.1 -0.1,0.1 -1.2,0 -2.4,0 -3.7,0 0,-0.2 0,-0.3 0,-0.4 1.1,0 2.3,0 3.5,0 z"
   id="path94" />
<path
   class="st2"
   d="m 246.9,46.8 c 0,0.2 0,0.4 0,0.6 -0.7,0 -1.4,0 -2.1,0 0,-0.2 0,-0.4 0,-0.6 0.7,0 1.4,0 2.1,0 z"
   id="path96" />
<path
   class="st2"
   d="m 249.6,47.5 c 0,-0.2 0,-0.4 0,-0.6 0.7,0 1.4,0 2.1,0 0,0.2 0,0.4 0,0.6 -0.7,0 -1.4,0 -2.1,0 z"
   id="path98" />
<path
   class="st2"
   d="m 235.9,48.4 c 0,-0.1 0,-0.3 0,-0.4 1,0 2,0 3.1,0 0,0.1 0,0.3 0,0.4 -1,0 -2,0 -3.1,0 z"
   id="path100" />
<path
   class="st5"
   d="m 237.6,55.4 c 0,0.4 0,0.8 0,1.2 -0.2,0 -0.5,-0.1 -0.5,0.2 -0.1,0.1 -0.2,0.2 -0.3,0.2 -0.1,-0.1 -0.1,-0.2 -0.2,-0.2 0.1,-0.6 0.2,-1.1 0.2,-1.7 0.3,0.2 0.6,0.3 0.8,0.3 z"
   id="path102" />
<path
   class="st2"
   d="m 245.5,43.4 c 0,-0.1 0,-0.3 0,-0.4 0.8,0 1.6,0 2.4,0 0,0.1 0,0.3 0,0.4 -0.8,0 -1.6,0 -2.4,0 z"
   id="path104" />
<path
   class="st2"
   d="m 245.5,46.5 c 0,-0.2 0,-0.4 0,-0.6 0.4,0 0.9,0 1.4,0 0,0.2 0,0.4 0,0.6 -0.4,0 -0.8,0 -1.4,0 z"
   id="path106" />
<path
   class="st2"
   d="m 248.7,43.4 c 0,-0.1 0,-0.3 0,-0.4 0.7,0 1.4,0 2.1,0 0,0.1 0,0.3 0,0.4 -0.7,0 -1.4,0 -2.1,0 z"
   id="path108" />
<path
   class="st2"
   d="m 251.7,48 c 0,0.1 0,0.3 0,0.4 -0.7,0 -1.4,0 -2.1,0 0,-0.1 0,-0.3 0,-0.4 0.7,0 1.4,0 2.1,0 z"
   id="path110" />
<path
   class="st2"
   d="m 246.9,48 c 0,0.1 0,0.2 0,0.4 -0.7,0 -1.4,0 -2.1,0 0,-0.1 0,-0.2 0,-0.4 0.7,0 1.4,0 2.1,0 z"
   id="path112" />
<path
   class="st2"
   d="m 240.2,46.6 c 0,-0.3 0,-0.4 0,-0.7 0.4,0 0.9,0 1.4,0 0,0.2 0,0.3 0,0.6 -0.4,0.1 -0.9,0 -1.4,0.1 z"
   id="path114" />
<path
   class="st2"
   d="m 244.3,46.5 c -0.5,0 -0.9,0 -1.4,0 0,-0.2 0,-0.4 0,-0.6 0.4,0 0.9,0 1.4,0 0,0.2 0,0.4 0,0.6 z"
   id="path116" />
<path
   class="st2"
   d="m 247.2,45.9 c 0.7,0 1.2,0 1.6,0 0,0.2 0,0.4 0,0.6 -0.4,0 -0.7,0 -1.1,0 0,-0.1 -0.2,-0.3 -0.5,-0.6 z"
   id="path118" />
<path
   class="st2"
   d="m 247.2,44.9 c 0.8,0 1.4,0 2.1,0 0.1,0.2 -0.2,0.3 -0.3,0.4 -0.6,0 -1.2,0 -1.8,0 0,-0.1 0,-0.2 0,-0.4 z"
   id="path120" />
<path
   class="st2"
   d="m 236.9,51.1 c -0.1,0.3 -0.2,0.6 -0.3,0.9 -0.1,0 -0.2,0 -0.4,0 0.2,-0.7 0.4,-1.4 0.6,-2.2 0.2,0.1 0.3,0.2 0.4,0.3 -0.3,0.3 -0.3,0.7 -0.3,1 z"
   id="path122" />
<path
   class="st2"
   d="m 250.8,46.5 c -0.4,0 -0.7,0 -1.1,0 0,-0.2 0,-0.4 0,-0.6 0.3,0 0.7,0 1.1,0 0,0.2 0,0.4 0,0.6 z"
   id="path124" />
<ellipse
   class="st2"
   cx="237.5"
   cy="46.199997"
   rx="0.80000001"
   ry="0.5"
   id="ellipse126" />
<path
   class="st2"
   d="m 243.2,55.9 c 0.2,0.1 0.3,0.2 0.5,0.2 0,0 0.1,-0.1 0.2,-0.2 0.3,0.3 0.1,0.7 -0.5,1.4 -0.2,-0.4 0.2,-0.9 -0.2,-1.4 z"
   id="path128" />
<path
   class="st2"
   d="m 236.6,53 c 0,0.3 0,0.6 0,0.6 0.2,0.3 0.3,0.5 0.4,0.7 0.2,-0.1 0.3,-0.2 0.5,-0.3 0,0.1 0.1,0.3 0.1,0.4 -0.4,0 -0.8,0 -1.2,0 0,-0.9 0,-0.9 0.2,-1.4 z"
   id="path130" />
<path
   class="st2"
   d="m 241.7,43 c 0,0.1 0,0.3 0,0.4 -0.5,0 -0.9,0 -1.4,0 0,-0.1 0,-0.3 0,-0.4 0.4,0 0.9,0 1.4,0 z"
   id="path132" />
<path
   class="st2"
   d="m 246.9,44.9 c 0,0.1 0,0.2 0,0.4 -0.5,0 -0.9,0 -1.4,0 0,-0.1 0,-0.2 0,-0.4 0.5,0 1,0 1.4,0 z"
   id="path134" />
<path
   class="st2"
   d="m 244.3,43.1 c -0.4,0.4 -0.4,0.4 -1.4,0.3 0,-0.1 0,-0.2 -0.1,-0.4 0.6,-0.1 1,0 1.5,0.1 z"
   id="path136" />
<path
   class="st2"
   d="m 247.6,46.8 c 0.4,0 0.7,0 1,0 0,0.2 0,0.4 0,0.6 -0.5,0.3 -0.8,0 -1,-0.6 z"
   id="path138" />
<path
   class="st2"
   d="m 236.9,43.4 c 0.3,-0.6 0.7,-0.3 1.1,-0.5 0,0.2 0.1,0.3 0.1,0.5 -0.4,0 -0.8,0 -1.2,0 z"
   id="path140" />
<ellipse
   class="st2"
   cx="237.5"
   cy="44.199997"
   rx="0.80000001"
   ry="0.30000001"
   id="ellipse142" />
<path
   class="st2"
   d="m 236.9,45.3 c 0.3,-0.6 0.7,-0.3 1.1,-0.5 0,0.2 0.1,0.3 0.1,0.5 -0.4,0 -0.8,0 -1.2,0 z"
   id="path144" />
<path
   class="st2"
   d="m 249.6,45.3 c 0,-0.1 0,-0.3 0,-0.4 0.4,0 0.8,0 1.2,0 0,0.1 0,0.3 0,0.4 -0.4,0 -0.8,0 -1.2,0 z"
   id="path146" />
<path
   class="st2"
   d="m 236.9,55.2 c -0.1,0.6 -0.2,1.1 -0.2,1.7 -0.3,-0.4 -0.3,-0.7 -0.1,-1.3 0.1,-0.1 0.1,-0.3 0.1,-0.4 0,0 0.1,0 0.2,0 z"
   id="path148" />
<path
   class="st5"
   d="m 240.7,54.2 c 0,-0.3 0,-0.6 0,-1 0.2,0 0.3,0 0.5,0 0,0.2 0,0.5 0,0.7 0,0.1 -0.1,0.2 -0.2,0.3 -0.1,0 -0.2,0 -0.3,0 z"
   id="path150" />
<path
   class="st5"
   d="m 236.9,51.1 c 0,-0.3 0,-0.7 0.2,-1 0.1,0 0.2,0 0.2,0 0,0.3 0,0.7 -0.2,1 -0.1,0 -0.1,0 -0.2,0 z"
   id="path152" />
<path
   class="st1"
   d="m 236.9,55.2 c -0.1,0 -0.2,0 -0.2,0 0.3,-0.3 0.7,-0.3 1,0 0,0.1 0,0.2 0,0.2 -0.3,0 -0.6,-0.1 -0.8,-0.2 z"
   id="path154" />
<path
   class="st4"
   d="m 236.9,52.6 c 0.3,0 0.6,0 0.9,-0.1 0,0.2 0,0.3 0.1,0.4 -0.4,-0.1 -0.7,-0.2 -1,-0.3 0,0.1 0,0 0,0 z"
   id="path156" />
<path
   class="st1"
   d="m 239.5,54.5 c 0,-0.2 0,-0.5 0,-0.7 0.1,0 0.1,0 0.2,0 0,0.2 0,0.5 0.1,0.7 -0.1,0 -0.2,0 -0.3,0 z"
   id="path158" />
<path
   class="st4"
   d="m 242.6,53.8 c 0,0.2 0,0.5 0,0.7 -0.5,-0.1 -0.1,-0.5 -0.2,-0.7 0.1,0 0.2,0 0.2,0 z"
   id="path160" />
<path
   class="st4"
   d="m 242.9,53.8 c -0.1,0 -0.2,0 -0.2,0 0,-0.1 0,-0.2 0,-0.2 0,-0.1 0.1,-0.1 0.1,-0.3 0,0.2 0.1,0.3 0.1,0.5 z"
   id="path162" />
<path
   class="st1"
   d="m 242.2,56.9 c 0,-0.1 0,-0.3 0,-0.4 0.1,0 0.1,0 0.2,0 0,0.2 0.1,0.3 0.1,0.5 -0.2,-0.1 -0.3,-0.1 -0.3,-0.1 z"
   id="path164" />
<path
   class="st2"
   d="m 237.1,56.9 c 0,-0.4 0.3,-0.2 0.5,-0.2 0,0.3 -0.3,0.1 -0.5,0.2 z"
   id="path166" />
<path
   class="st2"
   d="m 248.4,48 c 0,0.1 0,0.3 0,0.4 0,0 -0.1,0 -0.1,0 0,-0.1 -0.1,-0.3 -0.1,-0.4 0,0.1 0.1,0 0.2,0 z"
   id="path168" />
<path
   class="st2"
   d="m 242.6,53.5 c 0,0.1 0,0.2 0,0.2 -0.1,0 -0.2,0 -0.2,0 0.1,0 0.2,-0.1 0.2,-0.2 z"
   id="path170" />
<ellipse
   class="st2"
   cx="243"
   cy="57.5"
   rx="0.1"
   ry="0.2"
   id="ellipse172" />
<path
   class="st2"
   d="m 236.6,53 c 0.1,-0.1 0.2,-0.2 0.2,-0.2 0,0.1 -0.1,0.2 -0.2,0.2 z"
   id="path174" />
<path
   class="st1"
   d="m 240.3,56.6 c 0,-0.1 0,-0.3 0,-0.4 0,0 0.1,0 0.1,0 0,0.1 0.1,0.3 0.1,0.4 -0.1,0 -0.2,0 -0.2,0 z"
   id="path176" />
<path
   class="st0"
   d="m 244.4,54 c 0,-0.1 0,-0.3 0,-0.4 0,0 0.1,0 0.1,0 0,0.1 0.1,0.3 0.1,0.4 -0.1,-0.1 -0.2,0 -0.2,0 z"
   id="path178" />
<path
   class="st0"
   d="m 240.7,54.2 c 0.1,0 0.2,0 0.2,0 -0.1,0.1 -0.2,0.2 -0.2,0.2 0,0 0,-0.1 0,-0.2 z"
   id="path180" />
<path
   class="st1"
   d="m 238.1,53.8 c 0.1,-0.1 0.3,-0.2 0.4,-0.3 0.3,0.4 -0.1,0.5 -0.3,0.8 -0.1,-0.2 -0.1,-0.4 -0.1,-0.5 z"
   id="path182" />
</svg>
